<svg xmlns="http://www.w3.org/2000/svg" viewBox="0 0 960 253" width="960" height="253">
  <path d="M125.22 77.16q7.58 13.94 10.43 46.19t2.84 39.21q0 31.62-17.7 48.7-30.36-12.64-53.12-10.75 17.7-13.27 17.7-39.85 0-8.85-1.89-41.12Q81.57 103.1 80.32 86q-.64-22.78 6.33-31 27.81 5.07 38.57 22.13zm-51.86-24Q48.7 78.44 48.69 111.32a231.93 231.93 0 0 0 1.9 27.2Q55 170.79 55 180.9q0 14.57-5.07 23.41-20.24 6.31-40.47 24a143.17 143.17 0 0 1 36.05-4.42q37.93 0 60.7 17.06 43-43 43.64-44.26 20.24-25.93 20.24-63.26a104.54 104.54 0 0 0-1.27-15.81q-4.42-53.76-26.55-75.27-19.59-20.2-63.85-20.85Q15.81 20.89 0 0q5.06 26 32.25 41.12 11.37 7 41.11 12zm141 118.92v-69q0-25.29-16.44-36l-22.74 18.31q10.74 4.42 10.75 17.71v69q0 25.95 16.45 36.68l23.39-18.34q-11.39-4.44-11.38-18.34zm1.89-133.46a22 22 0 0 0 7-1.27q-7.59 21.51-26.56 21.51-11.38 0-22.77-15.19l23.4-18.34q10.13 13.29 19 13.29zM227.67 112q0 20.24 18.34 30.35 29.72 16.45 31.62 19 3.8 4.42 3.8 13.91-.65 8.22-3.8 13.28-17.08.64-26.56-27.19-14.55 11.37-21.5 17.07 10.74 27.21 34.78 31.63l32.88-24q9.48-7 9.49-24 0-20.25-17.71-30.37-29.73-16.44-31.62-19-10.75-11.39-1.89-25.94 17.7-2.52 27.82 24.67l21.5-15.81q-9.49-26.57-36.68-29.1l-25.93 18.26Q227.66 94.89 227.67 112zm138.49-8.86v69q0 25.95 16.45 36.68l22.77-18.34q-10.75-4.44-10.75-18.34v-69q0-27.19-25.93-36l-26.57 20.15a33.43 33.43 0 0 0-14.54-20.24l-23.4 18.34q11.38 4.42 11.39 17.71v69q0 25.95 16.43 36.68l22.77-18.34Q343.4 186 343.4 172.05V99.3l13.27-10.12q9.49 5.7 9.49 13.92zm89.18-37.95l-19 10.12Q406 91.08 406 139.16q0 29.73 12.34 48.7t35.1 20.24l31-25.3a34.2 34.2 0 0 1-12 1.89q-25.31 0-34.78-20.86a87.63 87.63 0 0 1-4.43-12.65l47.43-37.33-25.29-48.7zM437 87.29l17.08 32.89-23.4 19Q425 101.84 437 87.29zm51.23 15.81v72.11q0 8.85 8.22 20.25t20.24 13.27l23.4-19.61q0 2.53 3.15 12.66a120.77 120.77 0 0 1 3.81 19.6q2.52 23.4-25.93 23.4-20.88 0-20.87-15.81a14.3 14.3 0 0 1 3.16-9.48l-20.23-18.35q-9.51 9.5-9.49 22.14.63 13.29 15.17 21.5t34.77 8.22q20.88 0 35.1-9.49t14.24-24q0-8.22-2.85-22.77t-2.85-21.51V103.1q0-25.29-15.82-36l-23.38 18.29q11.37 4.42 11.37 17.71v72.74l-10.75 8.85q-12-3.78-12-16.44V103.1q0-25.29-16.44-36l-23.42 18.29q11.39 4.42 11.39 17.71zm125.85 69V46.17q0-25.29-15.81-36.68l-23.4 18.34q11.37 3.8 11.38 18.34v125.88q0 25.95 15.81 36.68l23.4-18.34q-11.38-4.44-11.38-18.34zm91.07 36l22.12-19.61q-16.44-1.89-16.43-13.28V103.1q0-12.64-9.8-23.08a50 50 0 0 0-25-14.23L652 82.23q-21.51 14.55-21.51 64.51 0 53.77 31.62 61.36l22.77-20.87Q690 203 705.14 208.1zm-29.72-26.56q-15.83-8.22-18.67-21.54a134.83 134.83 0 0 1-2.85-28.47q0-25.92 8.22-44.27 20.24.63 20.24 15.81v65.78q0 6.33-7 12.66zm107.5-78.44v69q0 25.95 16.45 36.68l23.39-18.34Q811.4 186 811.39 172.1v-69q0-27.19-25.93-36l-26.57 20.19q-2.53-12.66-14.55-20.24L721 85.39q11.37 4.42 11.38 17.71v69q0 25.95 16.45 36.68l22.76-18.34q-10.75-4.44-10.75-18.34v-69s-.21-1.27-.64-3.8l13.29-10.12q9.48 5.7 9.48 13.92zm88.54-4.74q-9.5-8.53-17.08-8.54-10.11 31-1.26 68.94 3.78 17.09 17.7 24.67 10.13-8.85 10.13-15.81v-55q0-5.7-9.49-14.23zm9.53-21.2V47.44q0-15.81-12.65-19.61l22.71-18.34q17.7 12 17.71 36.68v125.88q0 12 16.44 18.34l-22.76 17.71q-14.55-7.59-19-20.87l-22.11 20.87q-41.12-9.48-36-77.17 3.15-36.68 20.86-48.7l22.77-15.18q6.32 2.53 12 10.11zm67 132.2q12 0 12-12t-12-12q-12.66 0-12.66 12t12.66 12zm-10.13-12q0-9.49 10.13-9.49 9.48 0 9.48 9.49 0 10.13-9.48 10.12-10.14 0-10.13-10.12zm9.49 1.26l3.79 5.7h2.53l-3.79-5.7a3.51 3.51 0 0 0 3.16-3.79c0-3-1.47-4.43-4.43-4.43h-5.69v13.92h2.53v-5.7zm-1.9-6.32H948c2.1 0 3.15.64 3.15 1.89 0 1.7-1 2.54-3.15 2.54h-2.54v-4.43z" fill-rule="evenodd"/>
</svg>
