<svg xmlns="http://www.w3.org/2000/svg" viewBox="0 0 150 26">
  <path d="M48 22.8l-6-7.9-1.5 1.8v6.1h-4.2V3h4.2v8.8l7-8.8h5.2l-7.8 9.3 8.4 10.5zM72 22.8l-1.2-3.5h-8.5L61 22.8h-4.8L63.9 3h5.3l7.6 19.8zM66.5 7.2l-3.1 8.5h6.2zM79.8 21.2l1.8-3.2a4.72 4.72 0 0 0 3.1 1.4c1.9 0 3-1.2 3-3.2V3H92v13.3c0 4.7-2.9 6.8-7 6.8a7.15 7.15 0 0 1-5.2-1.9zM112.5 22.8l-1.2-3.2h-8.5l-1.2 3.2h-4.8L104.4 3h5.3l7.6 19.8zM107 7.2l-3.1 8.3h6.2zM122 22.8V3h10.5c3.8 0 5.7 2.4 5.7 5a4.32 4.32 0 0 1-3.4 4.5 4.82 4.82 0 0 1 3.8 4.9c0 3-2 5.3-5.7 5.3H122zm11.9-14a2 2 0 0 0-2.3-2h-5.3V11h5.3a2.18 2.18 0 0 0 2.3-2.2zm.4 8a2.32 2.32 0 0 0-2.5-2.3h-5.5V19h5.5c1.5 0 2.5-.8 2.5-2.2zM145.8 22.8V3h4.2v19.8zM0 26V0h26L0 26zM5.2 26l10.4-10.4L26 26H5.2z" />
</svg>
