<svg id="Layer_1" data-name="Layer 1" xmlns="http://www.w3.org/2000/svg" viewBox="0 0 150 26"><title>kajabi_logo</title><path d="M48,22.8l-6-7.9-1.5,1.8v6.1H36.3V3h4.2v8.8l7-8.8h5.2l-7.8,9.3,8.4,10.5Z"/><path d="M72,22.8l-1.2-3.5H62.3L61,22.8H56.2L63.9,3h5.3l7.6,19.8ZM66.5,7.2l-3.1,8.5h6.2Z"/><path d="M79.8,21.2,81.6,18a4.72,4.72,0,0,0,3.1,1.4c1.9,0,3-1.2,3-3.2V3H92V16.3c0,4.7-2.9,6.8-7,6.8A7.15,7.15,0,0,1,79.8,21.2Z"/><path d="M112.5,22.8l-1.2-3.2h-8.5l-1.2,3.2H96.8L104.4,3h5.3l7.6,19.8ZM107,7.2l-3.1,8.3h6.2Z"/><path d="M122,22.8V3h10.5c3.8,0,5.7,2.4,5.7,5a4.32,4.32,0,0,1-3.4,4.5,4.82,4.82,0,0,1,3.8,4.9c0,3-2,5.3-5.7,5.3H122Zm11.9-14a2,2,0,0,0-2.3-2h-5.3V11h5.3A2.18,2.18,0,0,0,133.9,8.8Zm.4,8a2.32,2.32,0,0,0-2.5-2.3h-5.5V19h5.5C133.3,19,134.3,18.2,134.3,16.8Z"/><path d="M145.8,22.8V3H150V22.8Z"/><polygon points="0 26 0 0 26 0 0 26"/><polygon points="5.2 26 15.6 15.6 26 26 5.2 26"/></svg>